<svg xmlns="http://www.w3.org/2000/svg" viewBox="0 0 32 32" fill="none">
  <title>Ember &amp; Roast</title>
  <rect width="32" height="32" rx="8" fill="#2c1810"/>
  <!-- Cup body -->
  <path
    fill="#f5ebe3"
    d="M7 12.5c0-1.1.9-2 2-2h11c1.1 0 2 .9 2 2v8c0 2.8-2.2 5-5 5h-7c-2.8 0-5-2.2-5-5v-8z"
  />
  <!-- Coffee surface -->
  <ellipse cx="15.5" cy="12.5" rx="6.5" ry="2" fill="#4a2c20"/>
  <!-- Handle -->
  <path
    stroke="#e8ddd4"
    stroke-width="1.8"
    stroke-linecap="round"
    d="M22 13.5h2.2c1.4 0 2.5 1.1 2.5 2.5s-1.1 2.5-2.5 2.5H22"
  />
  <!-- Saucer -->
  <ellipse cx="15.5" cy="26.5" rx="9" ry="1.8" fill="#d4c4b8"/>
  <!-- Steam -->
  <path
    stroke="#c9a87c"
    stroke-width="1.2"
    stroke-linecap="round"
    opacity="0.85"
    d="M12 7c.5-1 0-2 0-2.5M15.5 6.5c.3-1.2-.2-2.3-.2-2.3M19 7c.4-.9 0-1.8 0-2.4"
  />
</svg>
